<mxfile host="app.diagrams.net" modified="2024-02-23T05:00:29.635Z" agent="Mozilla/5.0 (Windows NT 10.0; Win64; x64) AppleWebKit/537.36 (KHTML, like Gecko) Chrome/121.0.0.0 Safari/537.36" etag="BwS-lnabzb9QLPmfXZ70" version="23.1.6" type="device" pages="2">
  <diagram name="TCPServerAndClient" id="rFa6JRQeXoHfP3vqnMjO">
    <mxGraphModel dx="1519" dy="1963" grid="0" gridSize="10" guides="1" tooltips="1" connect="1" arrows="1" fold="1" page="1" pageScale="1" pageWidth="827" pageHeight="1169" math="0" shadow="0">
      <root>
        <mxCell id="0" />
        <mxCell id="1" parent="0" />
        <mxCell id="qahjvbKbkuDnohyhexBv-2" value="TcpClient" style="rounded=0;whiteSpace=wrap;html=1;" vertex="1" parent="1">
          <mxGeometry x="150" y="181" width="254" height="72" as="geometry" />
        </mxCell>
        <mxCell id="qahjvbKbkuDnohyhexBv-8" value="clientSocket&lt;br&gt;&amp;lt;Socket&amp;gt;" style="shape=parallelogram;perimeter=parallelogramPerimeter;whiteSpace=wrap;html=1;fixedSize=1;" vertex="1" parent="1">
          <mxGeometry x="217" y="257" width="120" height="60" as="geometry" />
        </mxCell>
        <mxCell id="qahjvbKbkuDnohyhexBv-9" value="ipEndPoint&lt;br&gt;(&quot;127.0.0.1&quot;), 5000)&lt;br&gt;&amp;lt;IPEndPoint&amp;gt;" style="shape=parallelogram;perimeter=parallelogramPerimeter;whiteSpace=wrap;html=1;fixedSize=1;" vertex="1" parent="1">
          <mxGeometry x="174" y="328" width="206" height="60" as="geometry" />
        </mxCell>
        <mxCell id="qahjvbKbkuDnohyhexBv-10" value="clientSocket Connect (ipEndPoint)" style="rounded=0;whiteSpace=wrap;html=1;" vertex="1" parent="1">
          <mxGeometry x="156" y="399" width="242" height="60" as="geometry" />
        </mxCell>
        <mxCell id="qahjvbKbkuDnohyhexBv-11" value="sendData&lt;br&gt;&amp;lt;sting&amp;gt;&lt;br&gt;&quot;Hello, Server!&quot;" style="shape=parallelogram;perimeter=parallelogramPerimeter;whiteSpace=wrap;html=1;fixedSize=1;" vertex="1" parent="1">
          <mxGeometry x="217" y="467" width="120" height="60" as="geometry" />
        </mxCell>
        <mxCell id="qahjvbKbkuDnohyhexBv-15" value="clientSocket Send (sendBuffer)" style="rounded=0;whiteSpace=wrap;html=1;" vertex="1" parent="1">
          <mxGeometry x="154.5" y="665" width="242" height="60" as="geometry" />
        </mxCell>
        <mxCell id="qahjvbKbkuDnohyhexBv-60" style="edgeStyle=none;curved=1;rounded=0;orthogonalLoop=1;jettySize=auto;html=1;exitX=0;exitY=0.5;exitDx=0;exitDy=0;entryX=1;entryY=0.5;entryDx=0;entryDy=0;fontSize=12;startSize=8;endSize=8;" edge="1" parent="1" source="qahjvbKbkuDnohyhexBv-25" target="qahjvbKbkuDnohyhexBv-55">
          <mxGeometry relative="1" as="geometry" />
        </mxCell>
        <mxCell id="qahjvbKbkuDnohyhexBv-25" value="serverSocket Accept()" style="rounded=0;whiteSpace=wrap;html=1;" vertex="1" parent="1">
          <mxGeometry x="-130" y="403" width="212" height="60" as="geometry" />
        </mxCell>
        <mxCell id="qahjvbKbkuDnohyhexBv-43" value="" style="group" vertex="1" connectable="0" parent="1">
          <mxGeometry x="200" y="1167" width="247" height="94" as="geometry" />
        </mxCell>
        <mxCell id="qahjvbKbkuDnohyhexBv-39" value="" style="shape=parallelogram;perimeter=parallelogramPerimeter;whiteSpace=wrap;html=1;fixedSize=1;" vertex="1" parent="qahjvbKbkuDnohyhexBv-43">
          <mxGeometry x="8" y="12" width="239" height="60" as="geometry" />
        </mxCell>
        <mxCell id="qahjvbKbkuDnohyhexBv-40" value="" style="shape=parallelogram;perimeter=parallelogramPerimeter;whiteSpace=wrap;html=1;fixedSize=1;" vertex="1" parent="qahjvbKbkuDnohyhexBv-43">
          <mxGeometry x="4" y="6" width="239" height="60" as="geometry" />
        </mxCell>
        <mxCell id="qahjvbKbkuDnohyhexBv-41" value="receiveBuffer&lt;br&gt;&amp;lt;byte[1024]&amp;gt;" style="shape=parallelogram;perimeter=parallelogramPerimeter;whiteSpace=wrap;html=1;fixedSize=1;" vertex="1" parent="qahjvbKbkuDnohyhexBv-43">
          <mxGeometry width="239" height="60" as="geometry" />
        </mxCell>
        <mxCell id="qahjvbKbkuDnohyhexBv-42" value="" style="endArrow=none;dashed=1;html=1;dashPattern=1 3;strokeWidth=2;rounded=0;fontSize=12;startSize=8;endSize=8;" edge="1" parent="qahjvbKbkuDnohyhexBv-43">
          <mxGeometry width="50" height="50" relative="1" as="geometry">
            <mxPoint x="119.5" y="94" as="sourcePoint" />
            <mxPoint x="119" y="72" as="targetPoint" />
          </mxGeometry>
        </mxCell>
        <mxCell id="qahjvbKbkuDnohyhexBv-44" value="" style="group" vertex="1" connectable="0" parent="1">
          <mxGeometry x="153.5" y="540" width="247" height="94" as="geometry" />
        </mxCell>
        <mxCell id="qahjvbKbkuDnohyhexBv-16" value="" style="shape=parallelogram;perimeter=parallelogramPerimeter;whiteSpace=wrap;html=1;fixedSize=1;" vertex="1" parent="qahjvbKbkuDnohyhexBv-44">
          <mxGeometry x="8" y="12" width="239" height="60" as="geometry" />
        </mxCell>
        <mxCell id="qahjvbKbkuDnohyhexBv-17" value="" style="shape=parallelogram;perimeter=parallelogramPerimeter;whiteSpace=wrap;html=1;fixedSize=1;" vertex="1" parent="qahjvbKbkuDnohyhexBv-44">
          <mxGeometry x="4" y="6" width="239" height="60" as="geometry" />
        </mxCell>
        <mxCell id="qahjvbKbkuDnohyhexBv-18" value="&#xa;&lt;span style=&quot;color: rgb(0, 0, 0); font-family: Helvetica; font-size: 12px; font-style: normal; font-variant-ligatures: normal; font-variant-caps: normal; font-weight: 400; letter-spacing: normal; orphans: 2; text-align: center; text-indent: 0px; text-transform: none; widows: 2; word-spacing: 0px; -webkit-text-stroke-width: 0px; background-color: rgb(255, 255, 255); text-decoration-thickness: initial; text-decoration-style: initial; text-decoration-color: initial; float: none; display: inline !important;&quot;&gt;sendBuffer&lt;/span&gt;&lt;br style=&quot;border-color: var(--border-color); color: rgb(0, 0, 0); font-family: Helvetica; font-size: 12px; font-style: normal; font-variant-ligatures: normal; font-variant-caps: normal; font-weight: 400; letter-spacing: normal; orphans: 2; text-align: center; text-indent: 0px; text-transform: none; widows: 2; word-spacing: 0px; -webkit-text-stroke-width: 0px; background-color: rgb(255, 255, 255); text-decoration-thickness: initial; text-decoration-style: initial; text-decoration-color: initial;&quot;&gt;&lt;span style=&quot;color: rgb(0, 0, 0); font-family: Helvetica; font-size: 12px; font-style: normal; font-variant-ligatures: normal; font-variant-caps: normal; font-weight: 400; letter-spacing: normal; orphans: 2; text-align: center; text-indent: 0px; text-transform: none; widows: 2; word-spacing: 0px; -webkit-text-stroke-width: 0px; background-color: rgb(255, 255, 255); text-decoration-thickness: initial; text-decoration-style: initial; text-decoration-color: initial; float: none; display: inline !important;&quot;&gt;Encoding.UTF8.GetBytes(sendData)&lt;/span&gt;&lt;br style=&quot;border-color: var(--border-color); color: rgb(0, 0, 0); font-family: Helvetica; font-size: 12px; font-style: normal; font-variant-ligatures: normal; font-variant-caps: normal; font-weight: 400; letter-spacing: normal; orphans: 2; text-align: center; text-indent: 0px; text-transform: none; widows: 2; word-spacing: 0px; -webkit-text-stroke-width: 0px; background-color: rgb(255, 255, 255); text-decoration-thickness: initial; text-decoration-style: initial; text-decoration-color: initial;&quot;&gt;&lt;span style=&quot;color: rgb(0, 0, 0); font-family: Helvetica; font-size: 12px; font-style: normal; font-variant-ligatures: normal; font-variant-caps: normal; font-weight: 400; letter-spacing: normal; orphans: 2; text-align: center; text-indent: 0px; text-transform: none; widows: 2; word-spacing: 0px; -webkit-text-stroke-width: 0px; background-color: rgb(255, 255, 255); text-decoration-thickness: initial; text-decoration-style: initial; text-decoration-color: initial; float: none; display: inline !important;&quot;&gt;&amp;lt;byte[]&amp;gt;&lt;/span&gt;&#xa;&#xa;" style="shape=parallelogram;perimeter=parallelogramPerimeter;whiteSpace=wrap;html=1;fixedSize=1;" vertex="1" parent="qahjvbKbkuDnohyhexBv-44">
          <mxGeometry width="239" height="60" as="geometry" />
        </mxCell>
        <mxCell id="qahjvbKbkuDnohyhexBv-24" value="" style="endArrow=none;dashed=1;html=1;dashPattern=1 3;strokeWidth=2;rounded=0;fontSize=12;startSize=8;endSize=8;" edge="1" parent="qahjvbKbkuDnohyhexBv-44">
          <mxGeometry width="50" height="50" relative="1" as="geometry">
            <mxPoint x="119.5" y="94" as="sourcePoint" />
            <mxPoint x="119" y="72" as="targetPoint" />
          </mxGeometry>
        </mxCell>
        <mxCell id="qahjvbKbkuDnohyhexBv-46" value="" style="group" vertex="1" connectable="0" parent="1">
          <mxGeometry x="-208" y="665" width="362.5" height="325" as="geometry" />
        </mxCell>
        <mxCell id="qahjvbKbkuDnohyhexBv-31" value="receiveBystes&lt;br&gt;clientSocket Receive(receiveBuffer)&lt;br&gt;&amp;lt;int&amp;gt;" style="shape=parallelogram;perimeter=parallelogramPerimeter;whiteSpace=wrap;html=1;fixedSize=1;" vertex="1" parent="qahjvbKbkuDnohyhexBv-46">
          <mxGeometry x="48" y="136" width="245" height="60" as="geometry" />
        </mxCell>
        <mxCell id="qahjvbKbkuDnohyhexBv-32" value="&lt;br&gt;&lt;span style=&quot;color: rgb(0, 0, 0); font-family: Helvetica; font-size: 12px; font-style: normal; font-variant-ligatures: normal; font-variant-caps: normal; font-weight: 400; letter-spacing: normal; orphans: 2; text-align: center; text-indent: 0px; text-transform: none; widows: 2; word-spacing: 0px; -webkit-text-stroke-width: 0px; background-color: rgb(255, 255, 255); text-decoration-thickness: initial; text-decoration-style: initial; text-decoration-color: initial; float: none; display: inline !important;&quot;&gt;receiveData&lt;/span&gt;&lt;br style=&quot;border-color: var(--border-color); color: rgb(0, 0, 0); font-family: Helvetica; font-size: 12px; font-style: normal; font-variant-ligatures: normal; font-variant-caps: normal; font-weight: 400; letter-spacing: normal; orphans: 2; text-align: center; text-indent: 0px; text-transform: none; widows: 2; word-spacing: 0px; -webkit-text-stroke-width: 0px; background-color: rgb(255, 255, 255); text-decoration-thickness: initial; text-decoration-style: initial; text-decoration-color: initial;&quot;&gt;&lt;span style=&quot;color: rgb(0, 0, 0); font-family: Helvetica; font-size: 12px; font-style: normal; font-variant-ligatures: normal; font-variant-caps: normal; font-weight: 400; letter-spacing: normal; orphans: 2; text-align: center; text-indent: 0px; text-transform: none; widows: 2; word-spacing: 0px; -webkit-text-stroke-width: 0px; background-color: rgb(255, 255, 255); text-decoration-thickness: initial; text-decoration-style: initial; text-decoration-color: initial; float: none; display: inline !important;&quot;&gt;Encoding.UTF8.GetString(reveiveBuffer, 0, receiveBytes)&lt;/span&gt;&lt;br style=&quot;border-color: var(--border-color); color: rgb(0, 0, 0); font-family: Helvetica; font-size: 12px; font-style: normal; font-variant-ligatures: normal; font-variant-caps: normal; font-weight: 400; letter-spacing: normal; orphans: 2; text-align: center; text-indent: 0px; text-transform: none; widows: 2; word-spacing: 0px; -webkit-text-stroke-width: 0px; background-color: rgb(255, 255, 255); text-decoration-thickness: initial; text-decoration-style: initial; text-decoration-color: initial;&quot;&gt;&lt;span style=&quot;color: rgb(0, 0, 0); font-family: Helvetica; font-size: 12px; font-style: normal; font-variant-ligatures: normal; font-variant-caps: normal; font-weight: 400; letter-spacing: normal; orphans: 2; text-align: center; text-indent: 0px; text-transform: none; widows: 2; word-spacing: 0px; -webkit-text-stroke-width: 0px; background-color: rgb(255, 255, 255); text-decoration-thickness: initial; text-decoration-style: initial; text-decoration-color: initial; float: none; display: inline !important;&quot;&gt;&amp;lt;byte[1024]&amp;gt;&lt;/span&gt;&lt;div&gt;&lt;br&gt;&lt;/div&gt;" style="shape=parallelogram;perimeter=parallelogramPerimeter;whiteSpace=wrap;html=1;fixedSize=1;" vertex="1" parent="qahjvbKbkuDnohyhexBv-46">
          <mxGeometry y="211" width="341" height="60" as="geometry" />
        </mxCell>
        <mxCell id="qahjvbKbkuDnohyhexBv-33" value="클라이언트로부터 받은 데이터: {receiveData}" style="text;html=1;align=center;verticalAlign=middle;whiteSpace=wrap;rounded=0;fontSize=16;" vertex="1" parent="qahjvbKbkuDnohyhexBv-46">
          <mxGeometry x="6.5" y="295" width="356" height="30" as="geometry" />
        </mxCell>
        <mxCell id="qahjvbKbkuDnohyhexBv-45" value="" style="group" vertex="1" connectable="0" parent="qahjvbKbkuDnohyhexBv-46">
          <mxGeometry x="49" width="249" height="126" as="geometry" />
        </mxCell>
        <mxCell id="qahjvbKbkuDnohyhexBv-30" value="1024" style="shape=parallelogram;perimeter=parallelogramPerimeter;whiteSpace=wrap;html=1;fixedSize=1;" vertex="1" parent="qahjvbKbkuDnohyhexBv-45">
          <mxGeometry y="66" width="239" height="60" as="geometry" />
        </mxCell>
        <mxCell id="qahjvbKbkuDnohyhexBv-26" value="" style="shape=parallelogram;perimeter=parallelogramPerimeter;whiteSpace=wrap;html=1;fixedSize=1;" vertex="1" parent="qahjvbKbkuDnohyhexBv-45">
          <mxGeometry x="10" y="12" width="239" height="60" as="geometry" />
        </mxCell>
        <mxCell id="qahjvbKbkuDnohyhexBv-27" value="" style="shape=parallelogram;perimeter=parallelogramPerimeter;whiteSpace=wrap;html=1;fixedSize=1;" vertex="1" parent="qahjvbKbkuDnohyhexBv-45">
          <mxGeometry x="6" y="6" width="239" height="60" as="geometry" />
        </mxCell>
        <mxCell id="qahjvbKbkuDnohyhexBv-28" value="&lt;br&gt;&lt;span style=&quot;color: rgb(0, 0, 0); font-family: Helvetica; font-size: 12px; font-style: normal; font-variant-ligatures: normal; font-variant-caps: normal; font-weight: 400; letter-spacing: normal; orphans: 2; text-align: center; text-indent: 0px; text-transform: none; widows: 2; word-spacing: 0px; -webkit-text-stroke-width: 0px; background-color: rgb(255, 255, 255); text-decoration-thickness: initial; text-decoration-style: initial; text-decoration-color: initial; float: none; display: inline !important;&quot;&gt;receiveBuffer&lt;/span&gt;&lt;br style=&quot;border-color: var(--border-color); color: rgb(0, 0, 0); font-family: Helvetica; font-size: 12px; font-style: normal; font-variant-ligatures: normal; font-variant-caps: normal; font-weight: 400; letter-spacing: normal; orphans: 2; text-align: center; text-indent: 0px; text-transform: none; widows: 2; word-spacing: 0px; -webkit-text-stroke-width: 0px; background-color: rgb(255, 255, 255); text-decoration-thickness: initial; text-decoration-style: initial; text-decoration-color: initial;&quot;&gt;&lt;span style=&quot;color: rgb(0, 0, 0); font-family: Helvetica; font-size: 12px; font-style: normal; font-variant-ligatures: normal; font-variant-caps: normal; font-weight: 400; letter-spacing: normal; orphans: 2; text-align: center; text-indent: 0px; text-transform: none; widows: 2; word-spacing: 0px; -webkit-text-stroke-width: 0px; background-color: rgb(255, 255, 255); text-decoration-thickness: initial; text-decoration-style: initial; text-decoration-color: initial; float: none; display: inline !important;&quot;&gt;Encoding.UTF8.GetBytes(sendData)&lt;/span&gt;&lt;br style=&quot;border-color: var(--border-color); color: rgb(0, 0, 0); font-family: Helvetica; font-size: 12px; font-style: normal; font-variant-ligatures: normal; font-variant-caps: normal; font-weight: 400; letter-spacing: normal; orphans: 2; text-align: center; text-indent: 0px; text-transform: none; widows: 2; word-spacing: 0px; -webkit-text-stroke-width: 0px; background-color: rgb(255, 255, 255); text-decoration-thickness: initial; text-decoration-style: initial; text-decoration-color: initial;&quot;&gt;&lt;span style=&quot;color: rgb(0, 0, 0); font-family: Helvetica; font-size: 12px; font-style: normal; font-variant-ligatures: normal; font-variant-caps: normal; font-weight: 400; letter-spacing: normal; orphans: 2; text-align: center; text-indent: 0px; text-transform: none; widows: 2; word-spacing: 0px; -webkit-text-stroke-width: 0px; background-color: rgb(255, 255, 255); text-decoration-thickness: initial; text-decoration-style: initial; text-decoration-color: initial; float: none; display: inline !important;&quot;&gt;&amp;lt;byte[1024]&amp;gt;&lt;/span&gt;&lt;div&gt;&lt;br/&gt;&lt;/div&gt;" style="shape=parallelogram;perimeter=parallelogramPerimeter;whiteSpace=wrap;html=1;fixedSize=1;" vertex="1" parent="qahjvbKbkuDnohyhexBv-45">
          <mxGeometry x="2" width="239" height="60" as="geometry" />
        </mxCell>
        <mxCell id="qahjvbKbkuDnohyhexBv-29" value="" style="endArrow=none;dashed=1;html=1;dashPattern=1 3;strokeWidth=2;rounded=0;fontSize=12;startSize=8;endSize=8;" edge="1" parent="qahjvbKbkuDnohyhexBv-45">
          <mxGeometry width="50" height="50" relative="1" as="geometry">
            <mxPoint x="121" y="84" as="sourcePoint" />
            <mxPoint x="121" y="60" as="targetPoint" />
            <Array as="points">
              <mxPoint x="121" y="66" />
            </Array>
          </mxGeometry>
        </mxCell>
        <mxCell id="qahjvbKbkuDnohyhexBv-47" value="" style="group" vertex="1" connectable="0" parent="1">
          <mxGeometry x="-210.5" y="-129" width="356" height="443" as="geometry" />
        </mxCell>
        <mxCell id="qahjvbKbkuDnohyhexBv-1" value="TcpServer" style="rounded=0;whiteSpace=wrap;html=1;" vertex="1" parent="qahjvbKbkuDnohyhexBv-47">
          <mxGeometry x="85.5" width="185" height="67" as="geometry" />
        </mxCell>
        <mxCell id="qahjvbKbkuDnohyhexBv-3" value="serverSocket&lt;br&gt;&amp;lt;Socket&amp;gt;" style="shape=parallelogram;perimeter=parallelogramPerimeter;whiteSpace=wrap;html=1;fixedSize=1;" vertex="1" parent="qahjvbKbkuDnohyhexBv-47">
          <mxGeometry x="118" y="80" width="120" height="60" as="geometry" />
        </mxCell>
        <mxCell id="qahjvbKbkuDnohyhexBv-4" value="ipEndPoint&lt;br&gt;(IPAddress.Any, 5000)&lt;br&gt;&amp;lt;IPEndPoint&amp;gt;" style="shape=parallelogram;perimeter=parallelogramPerimeter;whiteSpace=wrap;html=1;fixedSize=1;" vertex="1" parent="qahjvbKbkuDnohyhexBv-47">
          <mxGeometry x="75" y="158" width="206" height="60" as="geometry" />
        </mxCell>
        <mxCell id="qahjvbKbkuDnohyhexBv-5" value="serverSocket Bind (ipEndPoint)" style="rounded=0;whiteSpace=wrap;html=1;" vertex="1" parent="qahjvbKbkuDnohyhexBv-47">
          <mxGeometry x="57" y="234" width="242" height="60" as="geometry" />
        </mxCell>
        <mxCell id="qahjvbKbkuDnohyhexBv-6" value="serverSocket Listen (ipEndPoint)" style="rounded=0;whiteSpace=wrap;html=1;" vertex="1" parent="qahjvbKbkuDnohyhexBv-47">
          <mxGeometry x="57" y="310" width="242" height="60" as="geometry" />
        </mxCell>
        <mxCell id="qahjvbKbkuDnohyhexBv-7" style="edgeStyle=none;curved=1;rounded=0;orthogonalLoop=1;jettySize=auto;html=1;exitX=0.5;exitY=1;exitDx=0;exitDy=0;fontSize=12;startSize=8;endSize=8;" edge="1" parent="qahjvbKbkuDnohyhexBv-47" source="qahjvbKbkuDnohyhexBv-3" target="qahjvbKbkuDnohyhexBv-3">
          <mxGeometry relative="1" as="geometry" />
        </mxCell>
        <mxCell id="qahjvbKbkuDnohyhexBv-34" value="서버가 시작되었습니다.&lt;br&gt;클라이언트 연결을 기다리고 있습니다." style="text;html=1;align=center;verticalAlign=middle;whiteSpace=wrap;rounded=0;fontSize=16;" vertex="1" parent="qahjvbKbkuDnohyhexBv-47">
          <mxGeometry y="389" width="356" height="54" as="geometry" />
        </mxCell>
        <mxCell id="qahjvbKbkuDnohyhexBv-48" value="sendData&lt;br&gt;&amp;lt;sting&amp;gt;&lt;br&gt;&quot;Hello, Server!&quot;" style="shape=parallelogram;perimeter=parallelogramPerimeter;whiteSpace=wrap;html=1;fixedSize=1;" vertex="1" parent="1">
          <mxGeometry x="-102" y="996" width="120" height="60" as="geometry" />
        </mxCell>
        <mxCell id="qahjvbKbkuDnohyhexBv-49" value="" style="group" vertex="1" connectable="0" parent="1">
          <mxGeometry x="-168" y="1069" width="247" height="94" as="geometry" />
        </mxCell>
        <mxCell id="qahjvbKbkuDnohyhexBv-50" value="" style="shape=parallelogram;perimeter=parallelogramPerimeter;whiteSpace=wrap;html=1;fixedSize=1;" vertex="1" parent="qahjvbKbkuDnohyhexBv-49">
          <mxGeometry x="8" y="12" width="239" height="60" as="geometry" />
        </mxCell>
        <mxCell id="qahjvbKbkuDnohyhexBv-51" value="" style="shape=parallelogram;perimeter=parallelogramPerimeter;whiteSpace=wrap;html=1;fixedSize=1;" vertex="1" parent="qahjvbKbkuDnohyhexBv-49">
          <mxGeometry x="4" y="6" width="239" height="60" as="geometry" />
        </mxCell>
        <mxCell id="qahjvbKbkuDnohyhexBv-52" value="sendBuffer&lt;br&gt;Encoding.UTF8.GetBytes(sendData)&lt;br&gt;&amp;lt;byte[]&amp;gt;" style="shape=parallelogram;perimeter=parallelogramPerimeter;whiteSpace=wrap;html=1;fixedSize=1;" vertex="1" parent="qahjvbKbkuDnohyhexBv-49">
          <mxGeometry width="239" height="60" as="geometry" />
        </mxCell>
        <mxCell id="qahjvbKbkuDnohyhexBv-53" value="" style="endArrow=none;dashed=1;html=1;dashPattern=1 3;strokeWidth=2;rounded=0;fontSize=12;startSize=8;endSize=8;" edge="1" parent="qahjvbKbkuDnohyhexBv-49">
          <mxGeometry width="50" height="50" relative="1" as="geometry">
            <mxPoint x="119.5" y="94" as="sourcePoint" />
            <mxPoint x="119" y="72" as="targetPoint" />
          </mxGeometry>
        </mxCell>
        <mxCell id="qahjvbKbkuDnohyhexBv-54" value="clientSocket Send (sendBuffer)" style="rounded=0;whiteSpace=wrap;html=1;" vertex="1" parent="1">
          <mxGeometry x="-163" y="1178" width="242" height="60" as="geometry" />
        </mxCell>
        <mxCell id="qahjvbKbkuDnohyhexBv-55" value="clientSocket&lt;br&gt;&amp;lt;Socket&amp;gt;" style="shape=parallelogram;perimeter=parallelogramPerimeter;whiteSpace=wrap;html=1;fixedSize=1;" vertex="1" parent="1">
          <mxGeometry x="-265" y="403" width="120" height="60" as="geometry" />
        </mxCell>
        <mxCell id="qahjvbKbkuDnohyhexBv-61" value="clientSocket Close()" style="rounded=0;whiteSpace=wrap;html=1;" vertex="1" parent="1">
          <mxGeometry x="-163" y="1275" width="242" height="60" as="geometry" />
        </mxCell>
        <mxCell id="qahjvbKbkuDnohyhexBv-62" value="severSocket Close()" style="rounded=0;whiteSpace=wrap;html=1;" vertex="1" parent="1">
          <mxGeometry x="-160" y="1372" width="242" height="60" as="geometry" />
        </mxCell>
        <mxCell id="qahjvbKbkuDnohyhexBv-63" value="서버가 종료되었습니다." style="text;html=1;align=center;verticalAlign=middle;whiteSpace=wrap;rounded=0;fontSize=16;" vertex="1" parent="1">
          <mxGeometry x="-212.5" y="1469" width="356" height="30" as="geometry" />
        </mxCell>
        <mxCell id="qahjvbKbkuDnohyhexBv-64" value="receiveBystes&lt;br&gt;clientSocket Receive(receiveBuffer)&lt;br&gt;&amp;lt;int&amp;gt;" style="shape=parallelogram;perimeter=parallelogramPerimeter;whiteSpace=wrap;html=1;fixedSize=1;" vertex="1" parent="1">
          <mxGeometry x="199" y="1279" width="245" height="60" as="geometry" />
        </mxCell>
        <mxCell id="qahjvbKbkuDnohyhexBv-75" value="&lt;br&gt;&lt;span style=&quot;color: rgb(0, 0, 0); font-family: Helvetica; font-size: 12px; font-style: normal; font-variant-ligatures: normal; font-variant-caps: normal; font-weight: 400; letter-spacing: normal; orphans: 2; text-align: center; text-indent: 0px; text-transform: none; widows: 2; word-spacing: 0px; -webkit-text-stroke-width: 0px; background-color: rgb(255, 255, 255); text-decoration-thickness: initial; text-decoration-style: initial; text-decoration-color: initial; float: none; display: inline !important;&quot;&gt;receiveData&lt;/span&gt;&lt;br style=&quot;border-color: var(--border-color); color: rgb(0, 0, 0); font-family: Helvetica; font-size: 12px; font-style: normal; font-variant-ligatures: normal; font-variant-caps: normal; font-weight: 400; letter-spacing: normal; orphans: 2; text-align: center; text-indent: 0px; text-transform: none; widows: 2; word-spacing: 0px; -webkit-text-stroke-width: 0px; background-color: rgb(255, 255, 255); text-decoration-thickness: initial; text-decoration-style: initial; text-decoration-color: initial;&quot;&gt;&lt;span style=&quot;color: rgb(0, 0, 0); font-family: Helvetica; font-size: 12px; font-style: normal; font-variant-ligatures: normal; font-variant-caps: normal; font-weight: 400; letter-spacing: normal; orphans: 2; text-align: center; text-indent: 0px; text-transform: none; widows: 2; word-spacing: 0px; -webkit-text-stroke-width: 0px; background-color: rgb(255, 255, 255); text-decoration-thickness: initial; text-decoration-style: initial; text-decoration-color: initial; float: none; display: inline !important;&quot;&gt;Encoding.UTF8.GetString(reveiveBuffer, 0, receiveBytes)&lt;/span&gt;&lt;br style=&quot;border-color: var(--border-color); color: rgb(0, 0, 0); font-family: Helvetica; font-size: 12px; font-style: normal; font-variant-ligatures: normal; font-variant-caps: normal; font-weight: 400; letter-spacing: normal; orphans: 2; text-align: center; text-indent: 0px; text-transform: none; widows: 2; word-spacing: 0px; -webkit-text-stroke-width: 0px; background-color: rgb(255, 255, 255); text-decoration-thickness: initial; text-decoration-style: initial; text-decoration-color: initial;&quot;&gt;&lt;span style=&quot;color: rgb(0, 0, 0); font-family: Helvetica; font-size: 12px; font-style: normal; font-variant-ligatures: normal; font-variant-caps: normal; font-weight: 400; letter-spacing: normal; orphans: 2; text-align: center; text-indent: 0px; text-transform: none; widows: 2; word-spacing: 0px; -webkit-text-stroke-width: 0px; background-color: rgb(255, 255, 255); text-decoration-thickness: initial; text-decoration-style: initial; text-decoration-color: initial; float: none; display: inline !important;&quot;&gt;&amp;lt;byte[1024]&amp;gt;&lt;/span&gt;&lt;div&gt;&lt;br&gt;&lt;/div&gt;" style="shape=parallelogram;perimeter=parallelogramPerimeter;whiteSpace=wrap;html=1;fixedSize=1;" vertex="1" parent="1">
          <mxGeometry x="145" y="1371" width="341" height="60" as="geometry" />
        </mxCell>
        <mxCell id="qahjvbKbkuDnohyhexBv-76" value="서버로부터 받은 데이터: {receiveData}" style="text;html=1;align=center;verticalAlign=middle;whiteSpace=wrap;rounded=0;fontSize=16;" vertex="1" parent="1">
          <mxGeometry x="143.5" y="1479" width="356" height="30" as="geometry" />
        </mxCell>
        <mxCell id="qahjvbKbkuDnohyhexBv-77" value="clientSocket Close()" style="rounded=0;whiteSpace=wrap;html=1;" vertex="1" parent="1">
          <mxGeometry x="210" y="1524" width="242" height="60" as="geometry" />
        </mxCell>
      </root>
    </mxGraphModel>
  </diagram>
  <diagram id="TzO9YMBNnM7rhV5b7go9" name="페이지-2">
    <mxGraphModel dx="692" dy="794" grid="0" gridSize="10" guides="1" tooltips="1" connect="1" arrows="1" fold="1" page="1" pageScale="1" pageWidth="827" pageHeight="1169" math="0" shadow="0">
      <root>
        <mxCell id="0" />
        <mxCell id="1" parent="0" />
      </root>
    </mxGraphModel>
  </diagram>
</mxfile>
